<svg width="449" height="399" viewBox="0 0 449 399" xmlns="http://www.w3.org/2000/svg" lang="en" xml:lang="en"><rect x="2" y="2" stroke-width="4" rx="6" width="445" height="395" stroke="rgba(56,139,253,0.4)" fill="#0d1117"/><g font-weight="600" font-size="110pt" font-family="Verdana,Geneva,DejaVu Sans,sans-serif" text-rendering="geometricPrecision"><g transform="translate(0, 21)" fill="#c9d1d9"><g transform="translate(15, 0)"><g transform="scale(0.095)"><text x="0" y="132" textLength="1115" lengthAdjust="spacingAndGlyphs">Contributions</text><text x="2358" y="132" textLength="794" lengthAdjust="spacingAndGlyphs">Past Year</text><text x="3537" y="132" textLength="418" lengthAdjust="spacingAndGlyphs">Total</text></g></g><g transform="translate(15, 21)"><path fill="#1f6feb" fill-rule="evenodd" d="M2.5 1.75a.25.25 0 01.25-.25h10.5a.25.25 0 01.25.25v10.5a.25.25 0 01-.25.25H2.75a.25.25 0 01-.25-.25V1.75zM2.75 0A1.75 1.75 0 001 1.75v10.5c0 .966.784 1.75 1.75 1.75h10.5A1.75 1.75 0 0015 12.25V1.75A1.75 1.75 0 0013.25 0H2.75zm8.03 6.28a.75.75 0 00-1.06-1.06L6.75 8.19l-1.97-1.97a.75.75 0 00-1.06 1.06l2.5 2.5a.75.75 0 001.06 0l3.5-3.5z"/><g transform="scale(0.095)"><text lengthAdjust="spacingAndGlyphs" textLength="1589" x="263" y="132">Total Contributions</text><text lengthAdjust="spacingAndGlyphs" textLength="415" x="2358" y="132">5670</text><text lengthAdjust="spacingAndGlyphs" textLength="518" x="3537" y="132">15925</text></g></g></g><g transform="translate(0, 84)" fill="#c9d1d9"><g transform="translate(15, 0)"><g transform="scale(0.095)"><text x="0" y="132" textLength="1829" lengthAdjust="spacingAndGlyphs">Language Distribution</text></g></g><g transform="translate(239, 21)"><circle cx="92" cy="92" r="92" fill="#ffffff"/></g><g transform="translate(240, 22)"><path fill-rule="evenodd" fill="#3572A5" d="M 0.0,91.00000000000001 A 91 91 0 0 1 156.37767540627806 27.7010303522139 L 91,91 Z"/><path fill-rule="evenodd" fill="#00ADD8" d="M 156.37767540627806,27.7010303522139 A 91 91 0 0 1 149.08033464172857 161.05479803628603 L 91,91 Z"/><path fill-rule="evenodd" fill="#3178c6" d="M 149.08033464172857,161.05479803628603 A 91 91 0 0 1 82.41486935265233 181.59412526079143 L 91,91 Z"/><path fill-rule="evenodd" fill="#844FBA" d="M 82.41486935265233,181.59412526079143 A 91 91 0 0 1 30.115297541427722 158.63174555289197 L 91,91 Z"/><path fill-rule="evenodd" fill="#89e051" d="M 30.115297541427722,158.63174555289197 A 91 91 0 0 1 10.197977252662284 132.85729470401446 L 91,91 Z"/><path fill-rule="evenodd" fill="#e34c26" d="M 10.197977252662284,132.85729470401446 A 91 91 0 0 1 5.171107230008062 121.2390668817215 L 91,91 Z"/><path fill-rule="evenodd" fill="#F05138" d="M 5.171107230008062,121.2390668817215 A 91 91 0 0 1 2.922876265122909 113.87838006920835 L 91,91 Z"/><path fill-rule="evenodd" fill="#f1e05a" d="M 2.922876265122909,113.87838006920835 A 91 91 0 0 1 1.4296881761449498 107.06733455733624 L 91,91 Z"/><path fill-rule="evenodd" fill="#00ADD8" d="M 1.4296881761449498,107.06733455733624 A 91 91 0 0 1 0.8280905551671793 103.24854060992043 L 91,91 Z"/><path fill-rule="evenodd" fill="#dad8d8" d="M 0.8280905551671793,103.24854060992043 A 91 91 0 0 1 0.541924199159638 100.91647731855517 L 91,91 Z"/><path fill-rule="evenodd" fill="#012456" d="M 0.541924199159638,100.91647731855517 A 91 91 0 0 1 0.38457575788305576 99.35732549450864 L 91,91 Z"/><path fill-rule="evenodd" fill="#f34b7d" d="M 0.38457575788305576,99.35732549450864 A 91 91 0 0 1 0.26622143840889123 97.9556759510597 L 91,91 Z"/><path fill-rule="evenodd" fill="#427819" d="M 0.26622143840889123,97.9556759510597 A 91 91 0 0 1 0.171785356383225 96.58886613304328 L 91,91 Z"/><path fill-rule="evenodd" fill="#663399" d="M 0.171785356383225,96.58886613304328 A 91 91 0 0 1 0.09910801155737659 95.24591988919818 L 91,91 Z"/><path fill-rule="evenodd" fill="#384d54" d="M 0.09910801155737659,95.24591988919818 A 91 91 0 0 1 0.06495733744725385 94.43773413162118 L 91,91 Z"/><path fill-rule="evenodd" fill="#959da5" d="M 0.06495733744725385,94.43773413162118 A 91 91 0 0 1 0.0 91.00000000000003 L 91,91 Z"/></g><g transform="translate(15, 21)"><rect x="0.5" y="0.5" rx="2" width="15" height="15" fill="#3572A5" stroke-width="1" stroke="#ffffff"/><text transform="scale(0.095)" x="263" y="132" textLength="1246" lengthAdjust="spacingAndGlyphs">Python 37.76%</text></g><g transform="translate(15, 42)"><rect x="0.5" y="0.5" rx="2" width="15" height="15" fill="#00ADD8" stroke-width="1" stroke="#ffffff"/><text transform="scale(0.095)" x="263" y="132" textLength="902" lengthAdjust="spacingAndGlyphs">Go 26.23%</text></g><g transform="translate(15, 63)"><rect x="0.5" y="0.5" rx="2" width="15" height="15" fill="#3178c6" stroke-width="1" stroke="#ffffff"/><text transform="scale(0.095)" x="263" y="132" textLength="1563" lengthAdjust="spacingAndGlyphs">TypeScript 12.52%</text></g><g transform="translate(15, 84)"><rect x="0.5" y="0.5" rx="2" width="15" height="15" fill="#844FBA" stroke-width="1" stroke="#ffffff"/><text transform="scale(0.095)" x="263" y="132" textLength="1019" lengthAdjust="spacingAndGlyphs">HCL 10.16%</text></g><g transform="translate(15, 105)"><rect x="0.5" y="0.5" rx="2" width="15" height="15" fill="#89e051" stroke-width="1" stroke="#ffffff"/><text transform="scale(0.095)" x="263" y="132" textLength="977" lengthAdjust="spacingAndGlyphs">Shell 5.73%</text></g><g transform="translate(15, 126)"><rect x="0.5" y="0.5" rx="2" width="15" height="15" fill="#e34c26" stroke-width="1" stroke="#ffffff"/><text transform="scale(0.095)" x="263" y="132" textLength="1047" lengthAdjust="spacingAndGlyphs">HTML 2.22%</text></g><g transform="translate(15, 147)"><rect x="0.5" y="0.5" rx="2" width="15" height="15" fill="#F05138" stroke-width="1" stroke="#ffffff"/><text transform="scale(0.095)" x="263" y="132" textLength="985" lengthAdjust="spacingAndGlyphs">Swift 1.35%</text></g><g transform="translate(15, 168)"><rect x="0.5" y="0.5" rx="2" width="15" height="15" fill="#f1e05a" stroke-width="1" stroke="#ffffff"/><text transform="scale(0.095)" x="263" y="132" textLength="1434" lengthAdjust="spacingAndGlyphs">JavaScript 1.22%</text></g><g transform="translate(15, 189)"><rect x="0.5" y="0.5" rx="2" width="15" height="15" fill="#00ADD8" stroke-width="1" stroke="#ffffff"/><text transform="scale(0.095)" x="263" y="132" textLength="1625" lengthAdjust="spacingAndGlyphs">Go Template 0.68%</text></g><g transform="translate(15, 210)"><rect x="0.5" y="0.5" rx="2" width="15" height="15" fill="#dad8d8" stroke-width="1" stroke="#ffffff"/><text transform="scale(0.095)" x="263" y="132" textLength="1123" lengthAdjust="spacingAndGlyphs">PLSQL 0.41%</text><rect x="224.5" y="0.5" rx="2" width="15" height="15" fill="#012456" stroke-width="1" stroke="#ffffff"/><text transform="scale(0.095)" x="2621" y="132" textLength="1490" lengthAdjust="spacingAndGlyphs">PowerShell 0.27%</text></g><g transform="translate(15, 231)"><rect x="0.5" y="0.5" rx="2" width="15" height="15" fill="#f34b7d" stroke-width="1" stroke="#ffffff"/><text transform="scale(0.095)" x="263" y="132" textLength="919" lengthAdjust="spacingAndGlyphs">C++ 0.25%</text><rect x="224.5" y="0.5" rx="2" width="15" height="15" fill="#427819" stroke-width="1" stroke="#ffffff"/><text transform="scale(0.095)" x="2621" y="132" textLength="1257" lengthAdjust="spacingAndGlyphs">Makefile 0.24%</text></g><g transform="translate(15, 252)"><rect x="0.5" y="0.5" rx="2" width="15" height="15" fill="#663399" stroke-width="1" stroke="#ffffff"/><text transform="scale(0.095)" x="263" y="132" textLength="919" lengthAdjust="spacingAndGlyphs">CSS 0.24%</text><rect x="224.5" y="0.5" rx="2" width="15" height="15" fill="#384d54" stroke-width="1" stroke="#ffffff"/><text transform="scale(0.095)" x="2621" y="132" textLength="1400" lengthAdjust="spacingAndGlyphs">Dockerfile 0.14%</text></g><g transform="translate(15, 273)"><rect x="0.5" y="0.5" rx="2" width="15" height="15" fill="#959da5" stroke-width="1" stroke="#ffffff"/><text transform="scale(0.095)" x="263" y="132" textLength="1035" lengthAdjust="spacingAndGlyphs">Other 0.60%</text></g></g></g></svg>
