<svg width="449" height="399" viewBox="0 0 449 399" xmlns="http://www.w3.org/2000/svg" lang="en" xml:lang="en"><rect x="2" y="2" stroke-width="4" rx="6" width="445" height="395" stroke="rgba(56,139,253,0.4)" fill="#0d1117"/><g font-weight="600" font-size="110pt" font-family="Verdana,Geneva,DejaVu Sans,sans-serif" text-rendering="geometricPrecision"><g transform="translate(0, 21)" fill="#c9d1d9"><g transform="translate(15, 0)"><g transform="scale(0.095)"><text x="0" y="132" textLength="1115" lengthAdjust="spacingAndGlyphs">Contributions</text><text x="2358" y="132" textLength="794" lengthAdjust="spacingAndGlyphs">Past Year</text><text x="3537" y="132" textLength="418" lengthAdjust="spacingAndGlyphs">Total</text></g></g><g transform="translate(15, 21)"><path fill="#1f6feb" fill-rule="evenodd" d="M2.5 1.75a.25.25 0 01.25-.25h10.5a.25.25 0 01.25.25v10.5a.25.25 0 01-.25.25H2.75a.25.25 0 01-.25-.25V1.75zM2.75 0A1.75 1.75 0 001 1.75v10.5c0 .966.784 1.75 1.75 1.75h10.5A1.75 1.75 0 0015 12.25V1.75A1.75 1.75 0 0013.25 0H2.75zm8.03 6.28a.75.75 0 00-1.06-1.06L6.75 8.19l-1.97-1.97a.75.75 0 00-1.06 1.06l2.5 2.5a.75.75 0 001.06 0l3.5-3.5z"/><g transform="scale(0.095)"><text lengthAdjust="spacingAndGlyphs" textLength="1589" x="263" y="132">Total Contributions</text><text lengthAdjust="spacingAndGlyphs" textLength="415" x="2358" y="132">5380</text><text lengthAdjust="spacingAndGlyphs" textLength="518" x="3537" y="132">15553</text></g></g></g><g transform="translate(0, 84)" fill="#c9d1d9"><g transform="translate(15, 0)"><g transform="scale(0.095)"><text x="0" y="132" textLength="1829" lengthAdjust="spacingAndGlyphs">Language Distribution</text></g></g><g transform="translate(239, 21)"><circle cx="92" cy="92" r="92" fill="#ffffff"/></g><g transform="translate(240, 22)"><path fill-rule="evenodd" fill="#00ADD8" d="M 0.0,91.00000000000001 A 91 91 0 0 1 156.2730564450187 27.593154136754286 L 91,91 Z"/><path fill-rule="evenodd" fill="#3572A5" d="M 156.2730564450187,27.593154136754286 A 91 91 0 0 1 173.06557685955318 130.3222722475288 L 91,91 Z"/><path fill-rule="evenodd" fill="#3178c6" d="M 173.06557685955318,130.3222722475288 A 91 91 0 0 1 114.45465647627144 178.92541776744707 L 91,91 Z"/><path fill-rule="evenodd" fill="#844FBA" d="M 114.45465647627144,178.92541776744707 A 91 91 0 0 1 46.59388466923392 170.42982387762612 L 91,91 Z"/><path fill-rule="evenodd" fill="#89e051" d="M 46.59388466923392,170.42982387762612 A 91 91 0 0 1 13.43956635003704 138.59599911788484 L 91,91 Z"/><path fill-rule="evenodd" fill="#e34c26" d="M 13.43956635003704,138.59599911788484 A 91 91 0 0 1 6.802832082052902 125.52299110154013 L 91,91 Z"/><path fill-rule="evenodd" fill="#F05138" d="M 6.802832082052902,125.52299110154013 A 91 91 0 0 1 3.849417639910712 117.18732506953114 L 91,91 Z"/><path fill-rule="evenodd" fill="#00ADD8" d="M 3.849417639910712,117.18732506953114 A 91 91 0 0 1 2.425776935577616 111.87120045742324 L 91,91 Z"/><path fill-rule="evenodd" fill="#f1e05a" d="M 2.425776935577616,111.87120045742324 A 91 91 0 0 1 1.4836353204813975 107.3652208834294 L 91,91 Z"/><path fill-rule="evenodd" fill="#dad8d8" d="M 1.4836353204813975,107.3652208834294 A 91 91 0 0 1 0.9150268267748913 103.87235830682604 L 91,91 Z"/><path fill-rule="evenodd" fill="#012456" d="M 0.9150268267748913,103.87235830682604 A 91 91 0 0 1 0.6114785352064729 101.53162795623547 L 91,91 Z"/><path fill-rule="evenodd" fill="#f34b7d" d="M 0.6114785352064729,101.53162795623547 A 91 91 0 0 1 0.39079275284547066 99.42446212183295 L 91,91 Z"/><path fill-rule="evenodd" fill="#427819" d="M 0.39079275284547066,99.42446212183295 A 91 91 0 0 1 0.24524477505147502 97.67640652294911 L 91,91 Z"/><path fill-rule="evenodd" fill="#663399" d="M 0.24524477505147502,97.67640652294911 A 91 91 0 0 1 0.1612080804073912 96.41422963947366 L 91,91 Z"/><path fill-rule="evenodd" fill="#ff3670" d="M 0.1612080804073912,96.41422963947366 A 91 91 0 0 1 0.10202453136103884 95.30790618545836 L 91,91 Z"/><path fill-rule="evenodd" fill="#959da5" d="M 0.10202453136103884,95.30790618545836 A 91 91 0 0 1 0.0 91.00000000000003 L 91,91 Z"/></g><g transform="translate(15, 21)"><rect x="0.5" y="0.5" rx="2" width="15" height="15" fill="#00ADD8" stroke-width="1" stroke="#ffffff"/><text transform="scale(0.095)" x="263" y="132" textLength="902" lengthAdjust="spacingAndGlyphs">Go 37.73%</text></g><g transform="translate(15, 42)"><rect x="0.5" y="0.5" rx="2" width="15" height="15" fill="#3572A5" stroke-width="1" stroke="#ffffff"/><text transform="scale(0.095)" x="263" y="132" textLength="1246" lengthAdjust="spacingAndGlyphs">Python 19.38%</text></g><g transform="translate(15, 63)"><rect x="0.5" y="0.5" rx="2" width="15" height="15" fill="#3178c6" stroke-width="1" stroke="#ffffff"/><text transform="scale(0.095)" x="263" y="132" textLength="1563" lengthAdjust="spacingAndGlyphs">TypeScript 13.74%</text></g><g transform="translate(15, 84)"><rect x="0.5" y="0.5" rx="2" width="15" height="15" fill="#844FBA" stroke-width="1" stroke="#ffffff"/><text transform="scale(0.095)" x="263" y="132" textLength="1019" lengthAdjust="spacingAndGlyphs">HCL 12.26%</text></g><g transform="translate(15, 105)"><rect x="0.5" y="0.5" rx="2" width="15" height="15" fill="#89e051" stroke-width="1" stroke="#ffffff"/><text transform="scale(0.095)" x="263" y="132" textLength="977" lengthAdjust="spacingAndGlyphs">Shell 8.13%</text></g><g transform="translate(15, 126)"><rect x="0.5" y="0.5" rx="2" width="15" height="15" fill="#e34c26" stroke-width="1" stroke="#ffffff"/><text transform="scale(0.095)" x="263" y="132" textLength="1047" lengthAdjust="spacingAndGlyphs">HTML 2.57%</text></g><g transform="translate(15, 147)"><rect x="0.5" y="0.5" rx="2" width="15" height="15" fill="#F05138" stroke-width="1" stroke="#ffffff"/><text transform="scale(0.095)" x="263" y="132" textLength="985" lengthAdjust="spacingAndGlyphs">Swift 1.55%</text></g><g transform="translate(15, 168)"><rect x="0.5" y="0.5" rx="2" width="15" height="15" fill="#00ADD8" stroke-width="1" stroke="#ffffff"/><text transform="scale(0.095)" x="263" y="132" textLength="1625" lengthAdjust="spacingAndGlyphs">Go Template 0.96%</text></g><g transform="translate(15, 189)"><rect x="0.5" y="0.5" rx="2" width="15" height="15" fill="#f1e05a" stroke-width="1" stroke="#ffffff"/><text transform="scale(0.095)" x="263" y="132" textLength="1434" lengthAdjust="spacingAndGlyphs">JavaScript 0.81%</text></g><g transform="translate(15, 210)"><rect x="0.5" y="0.5" rx="2" width="15" height="15" fill="#dad8d8" stroke-width="1" stroke="#ffffff"/><text transform="scale(0.095)" x="263" y="132" textLength="1123" lengthAdjust="spacingAndGlyphs">PLSQL 0.62%</text><rect x="224.5" y="0.5" rx="2" width="15" height="15" fill="#012456" stroke-width="1" stroke="#ffffff"/><text transform="scale(0.095)" x="2621" y="132" textLength="1490" lengthAdjust="spacingAndGlyphs">PowerShell 0.41%</text></g><g transform="translate(15, 231)"><rect x="0.5" y="0.5" rx="2" width="15" height="15" fill="#f34b7d" stroke-width="1" stroke="#ffffff"/><text transform="scale(0.095)" x="263" y="132" textLength="919" lengthAdjust="spacingAndGlyphs">C++ 0.37%</text><rect x="224.5" y="0.5" rx="2" width="15" height="15" fill="#427819" stroke-width="1" stroke="#ffffff"/><text transform="scale(0.095)" x="2621" y="132" textLength="1257" lengthAdjust="spacingAndGlyphs">Makefile 0.31%</text></g><g transform="translate(15, 252)"><rect x="0.5" y="0.5" rx="2" width="15" height="15" fill="#663399" stroke-width="1" stroke="#ffffff"/><text transform="scale(0.095)" x="263" y="132" textLength="919" lengthAdjust="spacingAndGlyphs">CSS 0.22%</text><rect x="224.5" y="0.5" rx="2" width="15" height="15" fill="#ff3670" stroke-width="1" stroke="#ffffff"/><text transform="scale(0.095)" x="2621" y="132" textLength="1280" lengthAdjust="spacingAndGlyphs">Mermaid 0.19%</text></g><g transform="translate(15, 273)"><rect x="0.5" y="0.5" rx="2" width="15" height="15" fill="#959da5" stroke-width="1" stroke="#ffffff"/><text transform="scale(0.095)" x="263" y="132" textLength="1035" lengthAdjust="spacingAndGlyphs">Other 0.75%</text></g></g></g></svg>
