<svg width="449" height="399" viewBox="0 0 449 399" xmlns="http://www.w3.org/2000/svg" lang="en" xml:lang="en"><rect x="2" y="2" stroke-width="4" rx="6" width="445" height="395" stroke="rgba(56,139,253,0.4)" fill="#0d1117"/><g font-weight="600" font-size="110pt" font-family="Verdana,Geneva,DejaVu Sans,sans-serif" text-rendering="geometricPrecision"><g transform="translate(0, 21)" fill="#c9d1d9"><g transform="translate(15, 0)"><g transform="scale(0.095)"><text x="0" y="132" textLength="1115" lengthAdjust="spacingAndGlyphs">Contributions</text><text x="2358" y="132" textLength="794" lengthAdjust="spacingAndGlyphs">Past Year</text><text x="3537" y="132" textLength="418" lengthAdjust="spacingAndGlyphs">Total</text></g></g><g transform="translate(15, 21)"><path fill="#1f6feb" fill-rule="evenodd" d="M2.5 1.75a.25.25 0 01.25-.25h10.5a.25.25 0 01.25.25v10.5a.25.25 0 01-.25.25H2.75a.25.25 0 01-.25-.25V1.75zM2.75 0A1.75 1.75 0 001 1.75v10.5c0 .966.784 1.75 1.75 1.75h10.5A1.75 1.75 0 0015 12.25V1.75A1.75 1.75 0 0013.25 0H2.75zm8.03 6.28a.75.75 0 00-1.06-1.06L6.75 8.19l-1.97-1.97a.75.75 0 00-1.06 1.06l2.5 2.5a.75.75 0 001.06 0l3.5-3.5z"/><g transform="scale(0.095)"><text lengthAdjust="spacingAndGlyphs" textLength="1589" x="263" y="132">Total Contributions</text><text lengthAdjust="spacingAndGlyphs" textLength="415" x="2358" y="132">5444</text><text lengthAdjust="spacingAndGlyphs" textLength="518" x="3537" y="132">15212</text></g></g></g><g transform="translate(0, 84)" fill="#c9d1d9"><g transform="translate(15, 0)"><g transform="scale(0.095)"><text x="0" y="132" textLength="1829" lengthAdjust="spacingAndGlyphs">Language Distribution</text></g></g><g transform="translate(239, 21)"><circle cx="92" cy="92" r="92" fill="#ffffff"/></g><g transform="translate(240, 22)"><path fill-rule="evenodd" fill="#3572A5" d="M 0.0,91.00000000000001 A 91 91 0 0 1 123.60617965383818 6.042145457988241 L 91,91 Z"/><path fill-rule="evenodd" fill="#844FBA" d="M 123.60617965383818,6.042145457988241 A 91 91 0 0 1 175.47835927028945 124.82908238483421 L 91,91 Z"/><path fill-rule="evenodd" fill="#00ADD8" d="M 175.47835927028945,124.82908238483421 A 91 91 0 0 1 100.82687149060635 181.46785394109395 L 91,91 Z"/><path fill-rule="evenodd" fill="#89e051" d="M 100.82687149060635,181.46785394109395 A 91 91 0 0 1 20.575291867164864 148.63124573011575 L 91,91 Z"/><path fill-rule="evenodd" fill="#e34c26" d="M 20.575291867164864,148.63124573011575 A 91 91 0 0 1 13.46268741466757 138.63365571782674 L 91,91 Z"/><path fill-rule="evenodd" fill="#00ADD8" d="M 13.46268741466757,138.63365571782674 A 91 91 0 0 1 8.442532663567391 129.2787746276427 L 91,91 Z"/><path fill-rule="evenodd" fill="#3178c6" d="M 8.442532663567391,129.2787746276427 A 91 91 0 0 1 5.069550548272019 120.94925469897412 L 91,91 Z"/><path fill-rule="evenodd" fill="#dad8d8" d="M 5.069550548272019,120.94925469897412 A 91 91 0 0 1 2.9500440480614003 113.98271648134032 L 91,91 Z"/><path fill-rule="evenodd" fill="#f1e05a" d="M 2.9500440480614003,113.98271648134032 A 91 91 0 0 1 1.9228517568679848 109.60810739626908 L 91,91 Z"/><path fill-rule="evenodd" fill="#f34b7d" d="M 1.9228517568679848,109.60810739626908 A 91 91 0 0 1 1.1337690237417632 105.31993471080804 L 91,91 Z"/><path fill-rule="evenodd" fill="#012456" d="M 1.1337690237417632,105.31993471080804 A 91 91 0 0 1 0.6477964394773608 101.83878737488106 L 91,91 Z"/><path fill-rule="evenodd" fill="#427819" d="M 0.6477964394773608,101.83878737488106 A 91 91 0 0 1 0.330726417246737 98.75131137136432 L 91,91 Z"/><path fill-rule="evenodd" fill="#ff3670" d="M 0.330726417246737,98.75131137136432 A 91 91 0 0 1 0.16498337474320124 96.47720318130717 L 91,91 Z"/><path fill-rule="evenodd" fill="#4F5D95" d="M 0.16498337474320124,96.47720318130717 A 91 91 0 0 1 0.09007765077197405 95.04796473024773 L 91,91 Z"/><path fill-rule="evenodd" fill="#384d54" d="M 0.09007765077197405,95.04796473024773 A 91 91 0 0 1 0.03804816390842802 93.6312199012161 L 91,91 Z"/><path fill-rule="evenodd" fill="#959da5" d="M 0.03804816390842802,93.6312199012161 A 91 91 0 0 1 0.0 91.00000000000003 L 91,91 Z"/></g><g transform="translate(15, 21)"><rect x="0.5" y="0.5" rx="2" width="15" height="15" fill="#3572A5" stroke-width="1" stroke="#ffffff"/><text transform="scale(0.095)" x="263" y="132" textLength="1246" lengthAdjust="spacingAndGlyphs">Python 30.83%</text></g><g transform="translate(15, 42)"><rect x="0.5" y="0.5" rx="2" width="15" height="15" fill="#844FBA" stroke-width="1" stroke="#ffffff"/><text transform="scale(0.095)" x="263" y="132" textLength="1019" lengthAdjust="spacingAndGlyphs">HCL 25.23%</text></g><g transform="translate(15, 63)"><rect x="0.5" y="0.5" rx="2" width="15" height="15" fill="#00ADD8" stroke-width="1" stroke="#ffffff"/><text transform="scale(0.095)" x="263" y="132" textLength="902" lengthAdjust="spacingAndGlyphs">Go 17.22%</text></g><g transform="translate(15, 84)"><rect x="0.5" y="0.5" rx="2" width="15" height="15" fill="#89e051" stroke-width="1" stroke="#ffffff"/><text transform="scale(0.095)" x="263" y="132" textLength="1081" lengthAdjust="spacingAndGlyphs">Shell 15.81%</text></g><g transform="translate(15, 105)"><rect x="0.5" y="0.5" rx="2" width="15" height="15" fill="#e34c26" stroke-width="1" stroke="#ffffff"/><text transform="scale(0.095)" x="263" y="132" textLength="1047" lengthAdjust="spacingAndGlyphs">HTML 2.15%</text></g><g transform="translate(15, 126)"><rect x="0.5" y="0.5" rx="2" width="15" height="15" fill="#00ADD8" stroke-width="1" stroke="#ffffff"/><text transform="scale(0.095)" x="263" y="132" textLength="1625" lengthAdjust="spacingAndGlyphs">Go Template 1.86%</text></g><g transform="translate(15, 147)"><rect x="0.5" y="0.5" rx="2" width="15" height="15" fill="#3178c6" stroke-width="1" stroke="#ffffff"/><text transform="scale(0.095)" x="263" y="132" textLength="1460" lengthAdjust="spacingAndGlyphs">TypeScript 1.57%</text></g><g transform="translate(15, 168)"><rect x="0.5" y="0.5" rx="2" width="15" height="15" fill="#dad8d8" stroke-width="1" stroke="#ffffff"/><text transform="scale(0.095)" x="263" y="132" textLength="1123" lengthAdjust="spacingAndGlyphs">PLSQL 1.27%</text></g><g transform="translate(15, 189)"><rect x="0.5" y="0.5" rx="2" width="15" height="15" fill="#f1e05a" stroke-width="1" stroke="#ffffff"/><text transform="scale(0.095)" x="263" y="132" textLength="1434" lengthAdjust="spacingAndGlyphs">JavaScript 0.79%</text></g><g transform="translate(15, 210)"><rect x="0.5" y="0.5" rx="2" width="15" height="15" fill="#f34b7d" stroke-width="1" stroke="#ffffff"/><text transform="scale(0.095)" x="263" y="132" textLength="919" lengthAdjust="spacingAndGlyphs">C++ 0.76%</text><rect x="224.5" y="0.5" rx="2" width="15" height="15" fill="#012456" stroke-width="1" stroke="#ffffff"/><text transform="scale(0.095)" x="2621" y="132" textLength="1490" lengthAdjust="spacingAndGlyphs">PowerShell 0.61%</text></g><g transform="translate(15, 231)"><rect x="0.5" y="0.5" rx="2" width="15" height="15" fill="#427819" stroke-width="1" stroke="#ffffff"/><text transform="scale(0.095)" x="263" y="132" textLength="1257" lengthAdjust="spacingAndGlyphs">Makefile 0.54%</text><rect x="224.5" y="0.5" rx="2" width="15" height="15" fill="#ff3670" stroke-width="1" stroke="#ffffff"/><text transform="scale(0.095)" x="2621" y="132" textLength="1280" lengthAdjust="spacingAndGlyphs">Mermaid 0.40%</text></g><g transform="translate(15, 252)"><rect x="0.5" y="0.5" rx="2" width="15" height="15" fill="#4F5D95" stroke-width="1" stroke="#ffffff"/><text transform="scale(0.095)" x="263" y="132" textLength="914" lengthAdjust="spacingAndGlyphs">PHP 0.25%</text><rect x="224.5" y="0.5" rx="2" width="15" height="15" fill="#384d54" stroke-width="1" stroke="#ffffff"/><text transform="scale(0.095)" x="2621" y="132" textLength="1400" lengthAdjust="spacingAndGlyphs">Dockerfile 0.25%</text></g><g transform="translate(15, 273)"><rect x="0.5" y="0.5" rx="2" width="15" height="15" fill="#959da5" stroke-width="1" stroke="#ffffff"/><text transform="scale(0.095)" x="263" y="132" textLength="1035" lengthAdjust="spacingAndGlyphs">Other 0.46%</text></g></g></g></svg>
