<svg width="449" height="504" viewBox="0 0 449 504" xmlns="http://www.w3.org/2000/svg" lang="en" xml:lang="en"><rect x="2" y="2" stroke-width="4" rx="6" width="445" height="500" stroke="rgba(56,139,253,0.4)" fill="#0d1117"/><g font-weight="600" font-size="110pt" font-family="Verdana,Geneva,DejaVu Sans,sans-serif" text-rendering="geometricPrecision"><g transform="translate(0, 21)" fill="#c9d1d9"><g transform="translate(15, 0)"><g transform="scale(0.095)"><text x="0" y="132" textLength="1112" lengthAdjust="spacingAndGlyphs">Contributions</text><text x="2358" y="132" textLength="774" lengthAdjust="spacingAndGlyphs">Past Year</text><text x="3537" y="132" textLength="414" lengthAdjust="spacingAndGlyphs">Total</text></g></g><g transform="translate(15, 21)"><path fill="#1f6feb" fill-rule="evenodd" d="M2.5 1.75a.25.25 0 01.25-.25h10.5a.25.25 0 01.25.25v10.5a.25.25 0 01-.25.25H2.75a.25.25 0 01-.25-.25V1.75zM2.75 0A1.75 1.75 0 001 1.75v10.5c0 .966.784 1.75 1.75 1.75h10.5A1.75 1.75 0 0015 12.25V1.75A1.75 1.75 0 0013.25 0H2.75zm8.03 6.28a.75.75 0 00-1.06-1.06L6.75 8.19l-1.97-1.97a.75.75 0 00-1.06 1.06l2.5 2.5a.75.75 0 001.06 0l3.5-3.5z"/><g transform="scale(0.095)"><text lengthAdjust="spacingAndGlyphs" textLength="1578" x="263" y="132">Total Contributions</text><text lengthAdjust="spacingAndGlyphs" textLength="420" x="2358" y="132">4811</text></g></g><g transform="translate(15, 42)"><path fill="#1f6feb" fill-rule="evenodd" d="M10.5 7.75a2.5 2.5 0 11-5 0 2.5 2.5 0 015 0zm1.43.75a4.002 4.002 0 01-7.86 0H.75a.75.75 0 110-1.5h3.32a4.001 4.001 0 017.86 0h3.32a.75.75 0 110 1.5h-3.32z"/><g transform="scale(0.095)"><text lengthAdjust="spacingAndGlyphs" textLength="734" x="263" y="132">Commits</text><text lengthAdjust="spacingAndGlyphs" textLength="210" x="2358" y="132">75</text><text lengthAdjust="spacingAndGlyphs" textLength="210" x="3537" y="132">74</text></g></g><g transform="translate(15, 63)"><path fill="#1f6feb" d="M8 9.5a1.5 1.5 0 100-3 1.5 1.5 0 000 3z"/><path fill="#1f6feb" fill-rule="evenodd" d="M8 0a8 8 0 100 16A8 8 0 008 0zM1.5 8a6.5 6.5 0 1113 0 6.5 6.5 0 01-13 0z"/><g transform="scale(0.095)"><text lengthAdjust="spacingAndGlyphs" textLength="512" x="263" y="132">Issues</text><text lengthAdjust="spacingAndGlyphs" textLength="105" x="2358" y="132">1</text><text lengthAdjust="spacingAndGlyphs" textLength="105" x="3537" y="132">2</text></g></g><g transform="translate(15, 84)"><path fill="#1f6feb" fill-rule="evenodd" d="M7.177 3.073L9.573.677A.25.25 0 0110 .854v4.792a.25.25 0 01-.427.177L7.177 3.427a.25.25 0 010-.354zM3.75 2.5a.75.75 0 100 1.5.75.75 0 000-1.5zm-2.25.75a2.25 2.25 0 113 2.122v5.256a2.251 2.251 0 11-1.5 0V5.372A2.25 2.25 0 011.5 3.25zM11 2.5h-1V4h1a1 1 0 011 1v5.628a2.251 2.251 0 101.5 0V5A2.5 2.5 0 0011 2.5zm1 10.25a.75.75 0 111.5 0 .75.75 0 01-1.5 0zM3.75 12a.75.75 0 100 1.5.75.75 0 000-1.5z"/><g transform="scale(0.095)"><text lengthAdjust="spacingAndGlyphs" textLength="1113" x="263" y="132">Pull Requests</text><text lengthAdjust="spacingAndGlyphs" textLength="105" x="2358" y="132">7</text><text lengthAdjust="spacingAndGlyphs" textLength="315" x="3537" y="132">573</text></g></g><g transform="translate(15, 105)"><path fill="#1f6feb" fill-rule="evenodd" d="M1 2.5A2.5 2.5 0 013.5 0h8.75a.75.75 0 01.75.75v3.5a.75.75 0 01-1.5 0V1.5h-8a1 1 0 00-1 1v6.708A2.492 2.492 0 013.5 9h3.25a.75.75 0 010 1.5H3.5a1 1 0 100 2h5.75a.75.75 0 010 1.5H3.5A2.5 2.5 0 011 11.5v-9zm13.23 7.79a.75.75 0 001.06-1.06l-2.505-2.505a.75.75 0 00-1.06 0L9.22 9.229a.75.75 0 001.06 1.061l1.225-1.224v6.184a.75.75 0 001.5 0V9.066l1.224 1.224z"/><g transform="scale(0.095)"><text lengthAdjust="spacingAndGlyphs" textLength="1234" x="263" y="132">Contributed To</text><text lengthAdjust="spacingAndGlyphs" textLength="210" x="2358" y="132">68</text></g></g><g transform="translate(15, 126)"><path fill="#1f6feb" fill-rule="evenodd" d="M4 4v2h-.25A1.75 1.75 0 002 7.75v5.5c0 .966.784 1.75 1.75 1.75h8.5A1.75 1.75 0 0014 13.25v-5.5A1.75 1.75 0 0012.25 6H12V4a4 4 0 10-8 0zm6.5 2V4a2.5 2.5 0 00-5 0v2h5zM12 7.5h.25a.25.25 0 01.25.25v5.5a.25.25 0 01-.25.25h-8.5a.25.25 0 01-.25-.25v-5.5a.25.25 0 01.25-.25H12z"/><g transform="scale(0.095)"><text lengthAdjust="spacingAndGlyphs" textLength="1742" x="263" y="132">Private Contributions</text><text lengthAdjust="spacingAndGlyphs" textLength="420" x="2358" y="132">4720</text><text lengthAdjust="spacingAndGlyphs" textLength="525" x="3537" y="132">13510</text></g></g></g><g transform="translate(0, 189)" fill="#c9d1d9"><g transform="translate(15, 0)"><g transform="scale(0.095)"><text x="0" y="132" textLength="3814" lengthAdjust="spacingAndGlyphs">Language Distribution (Owned + Contributed)</text></g></g><g transform="translate(239, 21)"><circle cx="92" cy="92" r="92" fill="#ffffff"/></g><g transform="translate(240, 22)"><path fill-rule="evenodd" fill="#844FBA" d="M 0.0,91.00000000000001 A 91 91 0 0 1 125.17521422367514 6.661072257433148 L 91,91 Z"/><path fill-rule="evenodd" fill="#3572A5" d="M 125.17521422367514,6.661072257433148 A 91 91 0 0 1 172.17095846086767 132.13727631411803 L 91,91 Z"/><path fill-rule="evenodd" fill="#89e051" d="M 172.17095846086767,132.13727631411803 A 91 91 0 0 1 88.16493204294954 181.95582658455095 L 91,91 Z"/><path fill-rule="evenodd" fill="#00ADD8" d="M 88.16493204294954,181.95582658455095 A 91 91 0 0 1 16.911062298163756 143.83776405387937 L 91,91 Z"/><path fill-rule="evenodd" fill="#e34c26" d="M 16.911062298163756,143.83776405387937 A 91 91 0 0 1 8.693908527892859 129.81632783488323 L 91,91 Z"/><path fill-rule="evenodd" fill="#dad8d8" d="M 8.693908527892859,129.81632783488323 A 91 91 0 0 1 4.929709155763106 120.54496630542116 L 91,91 Z"/><path fill-rule="evenodd" fill="#f34b7d" d="M 4.929709155763106,120.54496630542116 A 91 91 0 0 1 3.1718072188530755 114.81614059409483 L 91,91 Z"/><path fill-rule="evenodd" fill="#012456" d="M 3.1718072188530755,114.81614059409483 A 91 91 0 0 1 2.03168700070637 110.12169663130659 L 91,91 Z"/><path fill-rule="evenodd" fill="#427819" d="M 2.03168700070637,110.12169663130659 A 91 91 0 0 1 1.3215800864363985 106.45254030269976 L 91,91 Z"/><path fill-rule="evenodd" fill="#f1e05a" d="M 1.3215800864363985,106.45254030269976 A 91 91 0 0 1 0.8033701270407363 103.06515476736173 L 91,91 Z"/><path fill-rule="evenodd" fill="#3178c6" d="M 0.8033701270407363,103.06515476736173 A 91 91 0 0 1 0.43845961569680014 99.92229809086314 L 91,91 Z"/><path fill-rule="evenodd" fill="#ff3670" d="M 0.43845961569680014,99.92229809086314 A 91 91 0 0 1 0.18493573787610273 96.79862941274118 L 91,91 Z"/><path fill-rule="evenodd" fill="#4F5D95" d="M 0.18493573787610273,96.79862941274118 A 91 91 0 0 1 0.08081301741835034 94.83424548331934 L 91,91 Z"/><path fill-rule="evenodd" fill="#a52a22" d="M 0.08081301741835034,94.83424548331934 A 91 91 0 0 1 0.039542432844655195 93.68237938661437 L 91,91 Z"/><path fill-rule="evenodd" fill="#384d54" d="M 0.039542432844655195,93.68237938661437 A 91 91 0 0 1 0.020248408433161558 92.9195833758378 L 91,91 Z"/><path fill-rule="evenodd" fill="#959da5" d="M 0.020248408433161558,92.9195833758378 A 91 91 0 0 1 0.0 91.00000000000003 L 91,91 Z"/></g><g transform="translate(15, 21)"><rect x="0.5" y="0.5" rx="2" width="15" height="15" fill="#844FBA" stroke-width="1" stroke="#ffffff"/><text transform="scale(0.095)" x="263" y="132" textLength="1014" lengthAdjust="spacingAndGlyphs">HCL 31.13%</text></g><g transform="translate(15, 42)"><rect x="0.5" y="0.5" rx="2" width="15" height="15" fill="#3572A5" stroke-width="1" stroke="#ffffff"/><text transform="scale(0.095)" x="263" y="132" textLength="1254" lengthAdjust="spacingAndGlyphs">Python 26.34%</text></g><g transform="translate(15, 63)"><rect x="0.5" y="0.5" rx="2" width="15" height="15" fill="#89e051" stroke-width="1" stroke="#ffffff"/><text transform="scale(0.095)" x="263" y="132" textLength="1088" lengthAdjust="spacingAndGlyphs">Shell 18.03%</text></g><g transform="translate(15, 84)"><rect x="0.5" y="0.5" rx="2" width="15" height="15" fill="#00ADD8" stroke-width="1" stroke="#ffffff"/><text transform="scale(0.095)" x="263" y="132" textLength="910" lengthAdjust="spacingAndGlyphs">Go 14.64%</text></g><g transform="translate(15, 105)"><rect x="0.5" y="0.5" rx="2" width="15" height="15" fill="#e34c26" stroke-width="1" stroke="#ffffff"/><text transform="scale(0.095)" x="263" y="132" textLength="1036" lengthAdjust="spacingAndGlyphs">HTML 2.85%</text></g><g transform="translate(15, 126)"><rect x="0.5" y="0.5" rx="2" width="15" height="15" fill="#dad8d8" stroke-width="1" stroke="#ffffff"/><text transform="scale(0.095)" x="263" y="132" textLength="1095" lengthAdjust="spacingAndGlyphs">PLSQL 1.75%</text></g><g transform="translate(15, 147)"><rect x="0.5" y="0.5" rx="2" width="15" height="15" fill="#f34b7d" stroke-width="1" stroke="#ffffff"/><text transform="scale(0.095)" x="263" y="132" textLength="969" lengthAdjust="spacingAndGlyphs">C++ 1.05%</text></g><g transform="translate(15, 168)"><rect x="0.5" y="0.5" rx="2" width="15" height="15" fill="#012456" stroke-width="1" stroke="#ffffff"/><text transform="scale(0.095)" x="263" y="132" textLength="1486" lengthAdjust="spacingAndGlyphs">PowerShell 0.85%</text></g><g transform="translate(15, 189)"><rect x="0.5" y="0.5" rx="2" width="15" height="15" fill="#427819" stroke-width="1" stroke="#ffffff"/><text transform="scale(0.095)" x="263" y="132" textLength="1272" lengthAdjust="spacingAndGlyphs">Makefile 0.65%</text></g><g transform="translate(15, 210)"><rect x="0.5" y="0.5" rx="2" width="15" height="15" fill="#f1e05a" stroke-width="1" stroke="#ffffff"/><text transform="scale(0.095)" x="263" y="132" textLength="1412" lengthAdjust="spacingAndGlyphs">JavaScript 0.60%</text><rect x="224.5" y="0.5" rx="2" width="15" height="15" fill="#3178c6" stroke-width="1" stroke="#ffffff"/><text transform="scale(0.095)" x="2621" y="132" textLength="1462" lengthAdjust="spacingAndGlyphs">TypeScript 0.55%</text></g><g transform="translate(15, 231)"><rect x="0.5" y="0.5" rx="2" width="15" height="15" fill="#ff3670" stroke-width="1" stroke="#ffffff"/><text transform="scale(0.095)" x="263" y="132" textLength="1302" lengthAdjust="spacingAndGlyphs">Mermaid 0.55%</text><rect x="224.5" y="0.5" rx="2" width="15" height="15" fill="#4F5D95" stroke-width="1" stroke="#ffffff"/><text transform="scale(0.095)" x="2621" y="132" textLength="900" lengthAdjust="spacingAndGlyphs">PHP 0.34%</text></g><g transform="translate(15, 252)"><rect x="0.5" y="0.5" rx="2" width="15" height="15" fill="#a52a22" stroke-width="1" stroke="#ffffff"/><text transform="scale(0.095)" x="263" y="132" textLength="933" lengthAdjust="spacingAndGlyphs">Jinja 0.20%</text><rect x="224.5" y="0.5" rx="2" width="15" height="15" fill="#384d54" stroke-width="1" stroke="#ffffff"/><text transform="scale(0.095)" x="2621" y="132" textLength="1414" lengthAdjust="spacingAndGlyphs">Dockerfile 0.13%</text></g><g transform="translate(15, 273)"><rect x="0.5" y="0.5" rx="2" width="15" height="15" fill="#959da5" stroke-width="1" stroke="#ffffff"/><text transform="scale(0.095)" x="263" y="132" textLength="1047" lengthAdjust="spacingAndGlyphs">Other 0.34%</text></g></g></g></svg>
